<svg height="480pt" viewBox="-72 0 480 480" width="480pt" xmlns="http://www.w3.org/2000/svg"><path d="m8 8h320v464h-320zm0 0" fill="#ceb195"/><path d="m296 64h-8c-8.800781 0-16-7.199219-16-16v-8h-208v8c0 8.800781-7.199219 16-16 16h-8v352h8c8.800781 0 16 7.199219 16 16v8h208v-8c0-8.800781 7.199219-16 16-16h8zm0 0" fill="#e2c8ac"/><path d="m144 152v64l24-16 24 16v-64zm0 0" fill="#5b4349"/><g fill="#ceb195"><path d="m104 256h128v16h-128zm0 0"/><path d="m64 288h208v16h-208zm0 0"/><path d="m64 320h208v16h-208zm0 0"/><path d="m64 352h208v16h-208zm0 0"/><path d="m96 392h48v16h-48zm0 0"/><path d="m192 392h48v16h-48zm0 0"/></g><path d="m216 112c0 26.507812-21.492188 48-48 48s-48-21.492188-48-48 21.492188-48 48-48 48 21.492188 48 48zm0 0" fill="#e57e73"/><path d="m0 0v480h336v-480zm320 464h-304v-448h304zm0 0"/><path d="m136 157.601562v72.796876l32-21.597657 32 21.597657v-72.796876c25.601562-17.601562 32-52.800781 13.601562-77.601562-17.601562-25.601562-52.800781-32-77.601562-13.601562-24.800781 18.402343-32 52.800781-13.601562 77.601562 3.203124 5.601562 8 10.398438 13.601562 13.601562zm48 43.199219-16-10.402343-16 10.402343v-35.199219c10.398438 3.199219 21.601562 3.199219 32 0zm-16-128.800781c22.398438 0 40 17.601562 40 40s-17.601562 40-40 40-40-17.601562-40-40 17.601562-40 40-40zm0 0"/><path d="m104 256h128v16h-128zm0 0"/><path d="m64 288h208v16h-208zm0 0"/><path d="m64 320h208v16h-208zm0 0"/><path d="m64 352h208v16h-208zm0 0"/><path d="m96 392h48v16h-48zm0 0"/><path d="m192 392h48v16h-48zm0 0"/><path d="m56 432v16h224v-16c0-4.800781 3.199219-8 8-8h16v-368h-16c-4.800781 0-8-3.199219-8-8v-16h-224v16c0 4.800781-3.199219 8-8 8h-16v368h16c4.800781 0 8 3.199219 8 8zm-8-360c13.601562 0 24-10.398438 24-24h192c0 13.601562 10.398438 24 24 24v336c-13.601562 0-24 10.398438-24 24h-192c0-13.601562-10.398438-24-24-24zm0 0"/></svg>